<svg width="100%" height="100%" viewBox="0 0 233 233" version="1.1" xmlns="http://www.w3.org/2000/svg" xmlns:xlink="http://www.w3.org/1999/xlink" xml:space="preserve" xmlns:serif="http://www.serif.com/" style="fill-rule:evenodd;clip-rule:evenodd;stroke-linecap:round;stroke-linejoin:round;stroke-miterlimit:1.5;">
    <g transform="matrix(1,0,0,1,-288.875,-208.379397)">
        <g transform="matrix(1,0,0,1,-169,-142)">
            <g transform="matrix(1.022624,0,0,1.022624,-15.542986,-9.531674)">
                <path d="M649.864,382.896C672.641,403.143 687,432.658 687,465.5C687,498.859 672.186,528.786 648.782,549.054C629.508,565.746 604.409,575.887 576.961,575.999L576.5,576L576.039,575.999C548.591,575.887 523.492,565.746 504.218,549.054C480.814,528.786 466,498.859 466,465.5C466,432.658 480.359,403.143 503.136,382.896C522.427,365.747 551.061,355.004 575.516,355.004C599.971,355.004 630.573,365.747 649.864,382.896ZM563.701,388.314C547.04,391.06 532.146,399.08 520.792,410.598C506.868,424.725 498.27,444.117 498.27,465.5C498.27,487.833 507.649,507.993 522.679,522.253C533.537,532.554 547.344,539.776 562.695,542.514C567.177,543.313 571.79,543.73 576.5,543.73C581.21,543.73 585.823,543.313 590.305,542.514C605.656,539.776 619.463,532.554 630.321,522.253C645.351,507.993 654.73,487.833 654.73,465.5C654.73,444.117 646.132,424.725 632.208,410.598C620.854,399.08 605.96,391.06 589.299,388.314C585.134,387.627 580.858,387.27 576.5,387.27C572.142,387.27 567.866,387.627 563.701,388.314Z" style="fill:rgb(1,164,224);stroke:black;stroke-width:6.11px;"/>
            </g>
            <g transform="matrix(0.723982,0,0,0.723982,156.624434,129.486425)">
                <path d="M497.813,387.951C478.145,407.906 466,435.296 466,465.5C466,497.046 479.247,525.522 500.478,545.663C512.795,533.978 527.799,525.097 544.462,520.05C541.91,502.926 540.588,485.402 540.588,467.572C540.588,450.102 541.857,432.926 544.309,416.132C526.487,410.705 510.568,400.892 497.813,387.951Z" style="fill:none;stroke:black;stroke-width:8.63px;"/>
            </g>
            <g transform="matrix(0.723982,0,0,0.723982,156.624434,129.486425)">
                <path d="M652.522,545.663C673.753,525.522 687,497.046 687,465.5C687,435.296 674.855,407.906 655.187,387.951C642.432,400.892 626.513,410.705 608.691,416.132C611.143,432.926 612.413,450.102 612.413,467.572C612.413,485.402 611.09,502.926 608.538,520.05C625.201,525.097 640.205,533.978 652.522,545.663Z" style="fill:none;stroke:black;stroke-width:8.63px;"/>
            </g>
            <g transform="matrix(0.723982,0,0,0.723982,156.624434,129.486425)">
                <path d="M544.309,416.132C541.857,432.926 540.588,450.102 540.588,467.572C540.588,485.402 541.91,502.926 544.462,520.05C554.604,516.978 565.361,515.327 576.5,515.327C587.639,515.327 598.396,516.978 608.538,520.05C611.09,502.926 612.413,485.402 612.413,467.572C612.413,450.102 611.143,432.926 608.691,416.132C598.504,419.234 587.695,420.902 576.5,420.902C565.305,420.902 554.496,419.234 544.309,416.132Z" style="fill:none;stroke:black;stroke-width:8.63px;"/>
            </g>
            <g transform="matrix(0.723982,0,0,0.723982,156.624434,245.560023)">
                <path d="M595.999,413.955C617.683,410.088 637.185,399.887 652.522,385.337C640.205,373.651 625.201,364.771 608.538,359.724C605.767,378.311 601.548,396.428 595.999,413.955Z" style="fill:none;stroke:black;stroke-width:8.63px;"/>
            </g>
            <g transform="matrix(0.723982,0,0,0.723982,156.624434,245.560023)">
                <path d="M595.999,413.955C589.669,415.084 583.153,415.673 576.5,415.673C569.847,415.673 563.331,415.084 557.001,413.955C551.452,396.428 547.233,378.311 544.462,359.724C554.604,356.652 565.361,355 576.5,355C587.639,355 598.396,356.652 608.538,359.724C605.767,378.311 601.548,396.428 595.999,413.955Z" style="fill:none;stroke:black;stroke-width:8.63px;"/>
            </g>
            <g transform="matrix(0.723982,0,0,0.723982,156.624434,245.560023)">
                <path d="M500.478,385.337C515.815,399.887 535.317,410.088 557.001,413.955C551.452,396.428 547.233,378.311 544.462,359.724C527.799,364.771 512.795,373.651 500.478,385.337Z" style="fill:none;stroke:black;stroke-width:8.63px;"/>
            </g>
            <g transform="matrix(0.723982,0,0,0.723982,156.624434,17.198427)">
                <path d="M594.578,511.572C588.695,510.602 582.656,510.098 576.5,510.098C570.344,510.098 564.305,510.602 558.422,511.572C552.061,530.783 547.303,550.722 544.309,571.23C554.496,574.331 565.305,576 576.5,576C587.695,576 598.504,574.331 608.691,571.23C605.697,550.722 600.939,530.783 594.578,511.572Z" style="fill:none;stroke:black;stroke-width:8.63px;"/>
            </g>
            <g transform="matrix(0.723982,0,0,0.723982,156.624434,17.198427)">
                <path d="M558.422,511.572C534.887,515.452 513.849,526.779 497.813,543.049C510.568,555.989 526.487,565.803 544.309,571.23C547.303,550.722 552.061,530.783 558.422,511.572Z" style="fill:none;stroke:black;stroke-width:8.63px;"/>
            </g>
            <g transform="matrix(0.723982,0,0,0.723982,156.624434,17.198427)">
                <path d="M655.187,543.049C639.151,526.779 618.113,515.452 594.578,511.572C600.939,530.783 605.697,550.722 608.691,571.23C626.513,565.803 642.432,555.989 655.187,543.049Z" style="fill:none;stroke:black;stroke-width:8.63px;"/>
            </g>
            <path d="M494,466.502L654,466.502" style="fill:none;stroke:black;stroke-width:6.25px;"/>
        </g>
    </g>
</svg>
