<svg width="100%" height="100%" viewBox="0 0 342 300" version="1.1" xmlns="http://www.w3.org/2000/svg" xmlns:xlink="http://www.w3.org/1999/xlink" xml:space="preserve" xmlns:serif="http://www.serif.com/" style="fill-rule:evenodd;clip-rule:evenodd;stroke-linejoin:round;stroke-miterlimit:2;">
    <g id="Background" transform="matrix(4.166667,0,0,4.166667,12.5,0)">
        <path d="M14.995,66.037C14.656,65.571 13.354,64.049 12.891,62.382C12.248,60.071 12.851,59.173 10.47,58.928C6.853,58.557 2.493,60.247 2.465,51.5C2.454,48.06 2.351,15.502 2.472,8.5C2.597,1.217 7.924,2.153 15.499,2.186C39.458,2.29 40.457,1.893 42.456,2.617C47.768,4.541 45.18,12.207 46.173,14.683C46.654,15.882 48.507,15.609 55.5,15.621C61.514,15.63 62.042,16.014 64.719,21.39C72.03,36.068 72.309,36.028 72.493,38.5C72.571,39.548 72.534,52.953 72.512,53.5C72.271,59.427 66.672,58.904 66.516,58.918C64.063,59.128 64.251,59.975 63.93,61.587C62.547,68.514 53.95,71.384 48.682,66.31C48.029,65.681 47.551,65.069 47.193,64.484C45.271,61.339 46.827,58.969 43.489,58.922C32.224,58.763 32.093,58.716 31.408,59.398C30.82,59.984 30.686,62.965 28.931,65.365C28.334,66.181 27.55,66.93 26.497,67.494C20.451,70.732 17.075,67.754 14.995,66.037ZM51.527,64.275C52.569,65.1 53.926,65.57 55.494,65.433C57.395,65.266 57.317,65 58.884,63.92C59.798,62.742 60.002,62.867 60.447,61.483C60.521,61.253 60.964,59.874 60.618,58.47C59.545,54.122 54.477,53.092 51.799,54.958C48.226,57.447 48.778,62.097 51.527,64.275ZM18.103,64.231C21.255,66.523 26.786,65.364 27.31,60.476C27.374,59.883 27.358,59.356 27.292,58.892C27.144,57.858 26.748,57.134 26.424,56.681C26.195,56.361 26.003,56.176 25.959,56.113C25.769,55.946 25.661,55.699 25.47,55.531C22.433,52.863 18.519,54.067 16.805,56.75C16.288,57.559 15.971,58.503 15.939,59.516C15.925,59.967 15.952,60.392 16.017,60.792C16.217,62.022 16.768,63.008 17.527,63.745C17.567,63.785 17.609,63.824 17.651,63.862C17.795,63.994 17.946,64.116 18.103,64.231ZM32.788,55.698C34.471,55.744 37.688,55.717 44.502,55.619C47.295,55.579 47.271,54.408 48.898,52.929C52.086,50.031 56.906,50.297 59.36,51.74C62.815,53.772 62.186,55.961 66.506,55.593C69.679,55.323 69.086,52.965 69.086,48.5C69.086,37.986 69.268,37.881 67.996,35.24C65.536,29.821 65.253,29.972 61.577,22.462C59.863,18.96 59.398,18.924 55.5,18.909C49.133,18.885 46.924,18.872 46.412,19.412C45.801,20.056 45.901,21.548 45.901,30.5C45.901,35.366 45.938,38.581 45.907,40.731C45.852,44.603 45.575,45.018 44.461,45.402C44.013,45.556 42.307,45.643 39.85,45.689C34.651,45.786 26.086,45.698 18.965,45.67C12.513,45.645 7.246,45.67 6.74,45.927C6.269,46.167 5.672,46.471 5.919,52.49C6.051,55.717 7.813,55.736 11.504,55.61C14.385,55.512 14.829,52.796 17.843,51.425C18.568,51.095 19.44,50.844 20.531,50.724C25.331,50.199 27.615,52.87 29.189,54.417C29.689,54.907 30.117,55.285 30.531,55.412C31.026,55.563 31.336,55.658 32.788,55.698ZM19.634,42.238C28.91,42.271 40.626,42.27 41.353,42.059C42.681,41.672 42.465,41.028 42.465,27.5C42.465,7.094 42.712,6.55 41.272,5.954C40.711,5.722 34.167,5.3 33.199,6.151C32.268,6.971 32.543,7.31 32.514,20.5C32.507,23.398 33.014,27.11 27.641,24.217C26.64,23.678 26.683,23.639 25.616,23.226C24.193,22.675 23.623,23.033 23.383,23.01C18.671,24.852 16.101,27.536 15.887,22.491C15.765,19.604 16.177,7.658 15.59,6.444C15.248,5.735 13.671,5.703 13.492,5.699C7.181,5.568 6.127,5.592 5.92,8.513C5.912,8.637 5.902,40.346 5.926,40.46C6.303,42.233 6.701,42.167 8.504,42.179C9.483,42.186 14.129,42.218 19.634,42.238Z" style="fill:rgb(20,20,19);fill-opacity:0.99;"/>
        <path d="M49.862,22.882C50.492,22.638 50.39,22.272 52.495,22.205C52.654,22.2 54.842,22.189 55.502,22.195C58.465,22.221 58.721,22.641 60.613,26.443C64.801,34.855 66.315,37.021 65.233,38.252C64.56,39.019 64.403,39.132 52.493,38.906C49.222,38.844 49.121,37.639 49.101,34.5C49.031,23.629 49.386,23.645 49.46,23.478C49.556,23.259 49.766,23.102 49.862,22.882L53.012,34.915C53.148,34.979 53.377,35.528 54.489,35.606C54.891,35.634 57.581,35.821 59.532,35.654C61.095,35.52 61.058,34.953 60.509,33.497C60.501,33.473 57.711,27.996 57.467,27.518C57.315,27.219 56.181,24.993 53.626,25.843C52.718,26.145 52.574,27.349 52.555,27.506C52.526,27.753 52.533,33.34 52.544,33.497C52.62,34.544 52.864,34.467 53.012,34.915L49.862,22.882Z" style="fill:rgb(19,19,19);fill-opacity:0.99;"/>
        <path d="M19.103,10.5C19.113,9.176 18.629,6.079 20.548,5.73C21.124,5.625 27.248,5.662 27.473,5.694C29.609,5.995 29.057,8.228 29.104,16.5C29.121,19.51 29.374,21.462 26.705,20.053C26.581,19.987 26.484,19.878 26.36,19.813C22.58,17.818 20.979,21.318 19.606,20.346C18.763,19.749 19.026,19.578 19.085,18.538C19.108,18.121 19.103,13.454 19.103,10.5Z" style="fill:rgb(1,164,224);"/>
    </g>
</svg>
