<svg width="100%" height="100%" viewBox="0 0 92 72" version="1.1" xmlns="http://www.w3.org/2000/svg" xmlns:xlink="http://www.w3.org/1999/xlink" xml:space="preserve" xmlns:serif="http://www.serif.com/" style="fill-rule:evenodd;clip-rule:evenodd;stroke-linejoin:round;stroke-miterlimit:2;">
    <g transform="matrix(1,0,0,1,-0.196762,-0.074591)">
        <g id="Background" transform="matrix(1,0,0,1,0,2)">
            <path d="M78.217,5.002C80.117,3.887 83.123,2.103 84.435,2.633C85.197,2.941 85.626,3.115 87.014,12.572C90.658,37.396 92.569,38.698 89.323,40.129C82.377,43.189 81.3,42.558 80.687,42.198C79.84,41.701 79.588,40.382 76.464,42.454C74.981,43.439 75.562,45.213 75.292,46.459C74.237,51.322 70.821,50.086 69.6,52.55C67.733,56.317 67.309,56.238 64.389,57.09C61.825,57.838 62.819,59.287 60.222,61.073C59.167,61.8 56.782,61.993 56.473,62.018C53.926,62.224 54.291,63.635 52.586,64.632C48.777,66.858 46.958,65.074 45.504,64.491C42.738,63.383 39.63,66.43 36.385,61.572C35.414,60.118 35.341,60.106 33.479,59.578C30.021,58.599 29.564,56.445 29.169,55.638C28.271,53.803 27.865,54.2 25.788,53.012C23.875,51.919 24.23,51.568 23.24,49.603C22.424,47.986 22.16,48.212 20.522,47.455C18.044,46.312 17.355,43.4 17.003,42.817C16.846,42.557 14.767,40.195 13.465,40.346C11.969,40.518 12.597,43.534 8.615,42.166C2.997,40.236 2.764,40.041 2.35,39.696C0.916,38.498 1.176,37.845 2.771,28.55C5.307,13.776 5.161,13.763 5.401,12.482C6.629,5.924 6.445,2.605 8.493,2.44C9.032,2.396 9.551,2.354 14.648,5.211C20.25,8.35 23.21,9.583 23.636,10.408C24.646,12.365 22.762,14.303 25.599,15.049C30.501,16.339 34.332,11.323 44.452,14.628C47.262,15.546 47.628,14.246 51.534,13.71C58.714,12.725 60.477,15.373 65.474,15.151C69.965,14.952 68.193,12.747 68.316,11.482C68.447,10.137 68.7,10.028 78.217,5.002L64.015,47.978C54.479,38.396 54.16,38.547 53.923,37.399C53.773,36.671 54.429,35.399 55.5,35.43C56.45,35.458 58.298,37.289 58.505,37.495C66.829,45.742 66.747,45.815 67.518,46.48C70.734,49.253 72.779,45.963 71.164,43.751C70.839,43.305 59.557,32.062 57.73,30.266C53.999,26.601 52.611,28.84 43.607,31.817C39.103,33.306 35.579,30.982 34.598,27.471C32.883,21.334 40.044,18.87 40.59,18.57C41.258,18.204 41.074,18.01 40.722,17.347C40.365,16.676 40.213,16.855 39.451,16.864C35.906,16.91 33.995,17.495 33.539,17.634C25.03,20.24 24.719,17.642 22.418,18.247C21.61,18.459 21.44,18.547 17.875,27.643C15.002,34.976 14.107,36.103 16.452,37.567C18.235,38.68 18.529,38.474 20.034,37.018C20.201,36.857 20.335,36.663 20.505,36.505C25.099,32.237 28.916,36.069 29.42,36.575C30.689,37.849 30.731,37.955 32.511,37.951C38.293,37.936 38.559,42.578 39.576,43.415C40.482,44.161 44.414,44.686 44.842,49.478C45.171,53.159 46.659,52.284 48.476,52.245C51.405,52.182 53.712,57.376 56.578,58.181C57.417,58.417 59.048,57.925 59.235,56.451C59.563,53.867 53.384,49.5 51.739,47.32C50.454,45.617 51.62,43.884 53.498,44.505C54.856,44.954 61.277,52.265 62.729,53.076C63.402,53.452 65.115,53.372 65.57,52.554C66.625,50.655 65.327,49.549 64.015,47.978L78.217,5.002L38.922,28.02C40.606,28.757 40.737,29.082 44.578,27.723C53.696,24.495 55.348,22.86 60.747,28.252C61.626,29.13 71.644,39.134 71.742,39.21C73.39,40.495 75.111,39.13 75.673,38.807C77.054,38.014 77.22,38.19 77.527,37.518C78.142,36.17 77.337,34.947 76.415,32.534C76.003,31.457 71.745,20.313 70.981,19.188C69.354,16.789 67.311,19.586 62.486,18.576C57.698,17.574 53.829,14.67 43.624,20.723C42.65,21.301 42.666,21.285 41.695,21.842C41.004,22.238 36.551,24.128 38.504,27.497C38.616,27.69 38.81,27.827 38.922,28.02L78.217,5.002L31.205,49.164C35.208,45.294 35.063,44.89 35.21,44.419C35.503,43.476 34.954,41.827 33.472,41.686C32.916,41.633 31.599,41.507 27.833,45.795C26.13,47.733 26.764,49.686 28.553,50.139C29.769,50.447 29.7,49.973 31.205,49.164L78.217,5.002L38.024,54.017C38.219,53.814 40.273,51.687 40.432,51.45C42.195,48.827 39.887,47.529 39.51,47.46C38.297,47.236 36.876,48.54 36.695,48.706C36.446,48.934 34.8,50.445 33.72,51.698C30.984,54.873 33.923,57.529 36.895,54.962C36.895,54.962 37.934,54.092 38.024,54.017L78.217,5.002L22.035,40.081C21.912,40.263 21.704,40.376 21.58,40.557C19.714,43.295 22.753,46.583 26.253,42.292C28.006,40.143 26.507,38.456 25.563,38.256C23.74,37.871 22.085,40.033 22.035,40.081L78.217,5.002L40.919,55.975C40.665,56.29 38.918,57.765 39.459,59.516C39.631,60.075 41.391,62.323 44.22,59.249C46.179,57.121 44.396,53.995 41.533,55.552C41.314,55.67 41.138,55.856 40.919,55.975L78.217,5.002L51.081,61.196C51.133,60.939 51.331,60.727 51.384,60.47C51.616,59.342 50.927,57.409 49.498,57.491C48.232,57.564 48.739,58.165 48.317,59.426C48.188,59.812 47.955,60.166 47.881,60.566C47.811,60.95 48.242,62.985 50.61,61.649C50.8,61.542 50.891,61.303 51.081,61.196L78.217,5.002Z" style="fill-opacity:0.99;"/>
            <path d="M8.042,18.428C9.536,9.022 9.512,9.018 9.642,8.553C9.814,7.937 10.299,6.89 12.283,7.95C18.775,11.419 19.953,11.748 19.738,13.54C19.677,14.051 13.89,28.177 13.371,29.446C10.159,37.284 10.373,38.885 7.351,37.969C5.406,37.379 4.923,36.596 5.303,34.468C5.531,33.186 6.634,27.004 8.042,18.428Z" style="fill:rgb(1,164,224);"/>
            <path d="M83.905,15.434C86.969,35.508 87.884,35.918 86.384,37.345C86.045,37.667 83.263,38.965 82.378,37.6C81.708,36.565 72.764,13.897 72.663,13.47C72.374,12.249 73.39,11.635 73.535,11.547C75.913,10.108 78.925,8.552 79.402,8.306C79.563,8.222 81.105,7.425 81.5,7.425C82.506,7.423 82.732,8.252 82.766,8.374C82.917,8.926 82.794,8.942 83.905,15.434Z" style="fill:rgb(1,164,224);"/>
        </g>
    </g>
</svg>
