<?xml version="1.0" encoding="UTF-8"?><svg id="b" xmlns="http://www.w3.org/2000/svg" viewBox="0 0 551.26 239.43"><g id="c"><path d="M261.68,101.56v18.18h-39.17v18.44h33.93v18.18h-33.93v16.65h39.74v18.18h-60.58v-89.64h60.01Z" style="fill:#2b3990;"/><path d="M342.76,101.56h31.32v89.64h-21.18v-33.68l1.25-32.91-19.93,60.06h-19.59l-19.93-59.93,1.25,32.78v33.68h-20.04v-89.64h32.45l17.65,54.17,16.74-54.17Z" style="fill:#2b3990;"/><path d="M446.84,191.19l-5.92-18.82h-31.77l-5.92,18.82h-20.73l29.84-90.15h26.65l29.72,90.15h-21.86ZM414.84,154.19h20.38l-10.13-32.65-10.25,32.65Z" style="fill:#2b3990;"/><path d="M551.26,191.19h-26.53l-15.15-27.15-15.37,27.15h-24.83l27.44-43.15-28.13-46.48h25.74l15.6,26.89,16.28-26.89h23.69l-27.1,42.64,28.36,46.99Z" style="fill:#2b3990;"/><rect x="19.5" y="116.2" width="10.07" height="10.07" style="fill:#a7a9ac;"/><rect x="19.5" y="131.81" width="10.07" height="10.07" style="fill:#a7a9ac;"/><rect x="19.5" y="73.62" width="10.07" height="10.07" style="fill:#a7a9ac;"/><rect x="56.69" y="88.54" width="10.07" height="10.07" style="fill:#a7a9ac;"/><rect x="74.33" y="73.62" width="10.07" height="10.07" style="fill:#a7a9ac;"/><rect x="56.69" y="73.62" width="10.07" height="10.07" style="fill:#a7a9ac;"/><rect x="74.33" y="88.54" width="10.07" height="10.07" style="fill:#a7a9ac;"/><rect x="19.5" y="147.23" width="10.07" height="10.07" style="fill:#a7a9ac;"/><path d="M178.3,86.01c-12.99-21.6-36.88-34.25-66.63-35.66-2.95-.37-5.93-.64-9.03-.97V0c-.44.17-.67.26-.91.35-14.26,5.41-28.52,10.82-42.78,16.22C39.89,23.8,20.84,31.05,1.75,38.21.29,38.75,0,39.47,0,40.83c.05,10.43.06,20.86.06,31.29,0,39.22-.02,78.43-.04,117.65,0,.66,0,1.32,0,2.06h12.31v-12.75c0-43.08.01-86.16-.05-129.24,0-1.92.54-2.79,2.34-3.47,22.55-8.49,45.08-17.06,67.61-25.61,2.69-1.02,5.4-2,8.25-3.06v31.5h-52.58v142.67c.76.04,1.43.11,2.09.11,18.01,0,36.03.05,54.04-.02,7.22-.03,14.38-.54,21.42-1.78,27.95-2.32,50.38-14.87,62.83-35.64,12.69-21.17,12.7-47.44,0-68.54ZM165.55,124.04c-.57,6.65-2.62,13.2-6.19,19.16-9.03,15.05-26.31,23.96-48.28,25.17v-95.95c22.01,1.17,39.31,10,48.3,24.96,3.6,5.98,5.65,12.59,6.19,19.29.12,2.46.12,4.92-.02,7.37ZM50.1,179.56V61.57h38.91v117.99h-38.91Z" style="fill:#2b3990;"/><path d="M353.34,238.95v-33.69h14.04c3.08,0,5.53,1.03,7.34,3.1,1.81,2.07,2.72,4.68,2.72,7.82s-.92,5.88-2.76,7.92c-1.84,2.04-4.3,3.06-7.38,3.06h-9.42v11.79h-4.54ZM357.87,223.16h8.56c1.88,0,3.41-.65,4.58-1.95,1.17-1.3,1.76-2.98,1.76-5.03s-.59-3.68-1.76-4.98c-1.17-1.3-2.7-1.95-4.58-1.95h-8.56v13.91Z" style="fill:#a7a9ac;"/><path d="M407.87,215.6c0,2.28-.54,4.28-1.63,6.02-1.08,1.73-2.6,2.97-4.54,3.71l5.74,13.62h-4.79l-5.22-13.19h-9.12v13.19h-4.54v-33.69h14.77c2.85,0,5.12,1,6.81,2.98,1.68,1.99,2.53,4.45,2.53,7.36ZM388.31,209.25v12.52h9.37c1.71,0,3.07-.59,4.09-1.78,1.01-1.19,1.52-2.68,1.52-4.48s-.51-3.29-1.52-4.48c-1.01-1.19-2.38-1.78-4.09-1.78h-9.37Z" style="fill:#a7a9ac;"/><path d="M428.21,239.43c-4.65,0-8.35-1.58-11.11-4.74-2.75-3.16-4.13-7.34-4.13-12.54s1.38-9.43,4.15-12.61c2.77-3.18,6.46-4.77,11.09-4.77s8.36,1.59,11.13,4.77c2.77,3.18,4.15,7.38,4.15,12.61s-1.38,9.38-4.13,12.54c-2.75,3.16-6.47,4.74-11.15,4.74ZM420.61,231.85c1.9,2.33,4.44,3.49,7.64,3.49s5.74-1.16,7.62-3.49c1.88-2.33,2.83-5.54,2.83-9.65s-.94-7.4-2.83-9.77c-1.88-2.37-4.42-3.56-7.62-3.56s-5.74,1.18-7.64,3.54c-1.9,2.36-2.85,5.62-2.85,9.8s.95,7.32,2.85,9.65Z" style="fill:#a7a9ac;"/><path d="M463.05,205.25v23.59c0,3.56-.94,6.22-2.8,7.97-1.87,1.75-4.36,2.62-7.47,2.62-2.31,0-4.62-.59-6.93-1.78l.51-4.14c2.11,1.22,4.18,1.83,6.21,1.83,3.97,0,5.95-2.2,5.95-6.59v-19.69h-8.13v-3.8h12.67Z" style="fill:#a7a9ac;"/><path d="M492.8,205.25v4h-16.78v11.26h14.47v4h-14.47v10.45h17.25v4h-21.79v-33.69h21.32Z" style="fill:#a7a9ac;"/><path d="M519.21,238.95l-8.99-16.85-5.99,7.32v9.53h-4.54v-33.69h4.54v17.67l14.51-17.67h5.31l-10.57,12.9,11.3,20.79h-5.57Z" style="fill:#a7a9ac;"/><path d="M551.19,205.25v4h-10.1v29.7h-4.54v-29.7h-10.1v-4h24.74Z" style="fill:#a7a9ac;"/></g></svg>