<svg width="100%" height="100%" viewBox="0 0 777 237" version="1.1" xmlns="http://www.w3.org/2000/svg" xmlns:xlink="http://www.w3.org/1999/xlink" xml:space="preserve" xmlns:serif="http://www.serif.com/" style="fill-rule:evenodd;clip-rule:evenodd;stroke-linejoin:round;stroke-miterlimit:2;">
    <g transform="matrix(1,0,0,1,-211.953622,-195.880395)">
        <g transform="matrix(0.290659,0,0,0.290659,88.741331,203.286536)">
            <g transform="matrix(4.166667,0,0,4.166667,0,-810.454283)">
                <g transform="matrix(22.3151,191.137,191.137,-22.3151,108.669355,193.104813)">
                    <path d="M0,0.035C0.001,0.033 0.002,0.031 0.004,0.03C0.021,0.011 0.042,-0.005 0.068,-0.017C0.1,-0.032 0.136,-0.044 0.172,-0.05C0.305,-0.071 0.672,-0.117 0.786,-0.126C0.812,-0.127 0.85,-0.112 0.87,-0.096C0.906,-0.068 1,0.039 1,0.039C1,0.039 0.385,0.11 0.242,0.131C0.208,0.136 0.136,0.163 0.136,0.163C0.136,0.163 0.099,0.118 0.074,0.097C0.054,0.079 0.024,0.053 0,0.035Z" style="fill:url(#_Linear1);"/>
                </g>
                <g transform="matrix(-208.248,-233.432,-233.432,208.248,364.22001,420.962338)">
                    <path d="M1.075,0.107C1.056,0.106 1.032,0.105 1.016,0.104C0.996,0.102 0.96,0.092 0.936,0.086L0.723,0.023L0.702,-0.082C0.704,-0.083 0.707,-0.083 0.71,-0.083C0.721,-0.084 0.733,-0.084 0.756,-0.08C0.79,-0.074 0.804,-0.069 0.827,-0.062C0.858,-0.053 0.91,-0.036 0.943,-0.026C0.97,-0.018 0.998,0.005 1.015,0.022C1.028,0.035 1.051,0.064 1.051,0.064C1.051,0.064 1.072,0.092 1.075,0.107Z" style="fill:url(#_Linear2);"/>
                </g>
                <g transform="matrix(89.2621,-53.7645,-53.7645,-89.2621,164.222025,339.761542)">
                    <path d="M-0.14,0.019L0.157,0.025L0.042,-0.17L-0.279,-0.209L-0.14,0.019ZM0.773,0.463L1.094,0.457C1.091,0.41 1.063,0.357 1.039,0.318C1.009,0.271 0.966,0.198 0.919,0.166C0.872,0.134 0.809,0.119 0.751,0.114C0.671,0.107 0.313,0.106 0.313,0.106L-0.091,0.098L0.127,0.458L0.773,0.463Z" style="fill:url(#_Linear3);"/>
                </g>
            </g>
            <g transform="matrix(4.166667,0,0,4.166667,0,-810.454283)">
                <path d="M292.192,279.394C297.013,279.394 301.198,280.197 304.749,281.804C308.3,283.411 311.034,285.692 312.952,288.646C314.87,291.601 315.829,295.1 315.829,299.143C315.829,303.134 314.87,306.62 312.952,309.601C311.034,312.581 308.3,314.862 304.749,316.443C301.198,318.024 297.013,318.815 292.192,318.815L281.229,318.815L281.229,333.821L268.633,333.821L268.633,279.394L292.192,279.394ZM291.492,308.551C295.276,308.551 298.153,307.735 300.123,306.102C302.092,304.469 303.077,302.149 303.077,299.143C303.077,296.085 302.092,293.739 300.123,292.106C298.153,290.473 295.276,289.657 291.492,289.657L281.229,289.657L281.229,308.551L291.492,308.551Z" style="fill:rgb(1,4,46);fill-rule:nonzero;"/>
                <path d="M335.481,297.51C336.932,295.489 338.889,293.959 341.351,292.923C343.814,291.886 346.652,291.368 349.865,291.368L349.865,302.564C348.518,302.46 347.61,302.409 347.144,302.409C343.671,302.409 340.95,303.381 338.98,305.324C337.01,307.268 336.025,310.184 336.025,314.072L336.025,333.821L323.896,333.821L323.896,291.99L335.481,291.99L335.481,297.51Z" style="fill:rgb(1,4,46);fill-rule:nonzero;"/>
                <path d="M376.593,334.443C372.187,334.443 368.235,333.523 364.736,331.683C361.237,329.843 358.502,327.29 356.533,324.024C354.563,320.758 353.578,317.052 353.578,312.905C353.578,308.758 354.563,305.052 356.533,301.787C358.502,298.521 361.237,295.968 364.736,294.128C368.235,292.288 372.187,291.368 376.593,291.368C380.999,291.368 384.939,292.288 388.412,294.128C391.884,295.968 394.606,298.521 396.576,301.787C398.545,305.052 399.53,308.758 399.53,312.905C399.53,317.052 398.545,320.758 396.576,324.024C394.606,327.29 391.884,329.843 388.412,331.683C384.939,333.523 380.999,334.443 376.593,334.443ZM376.593,324.491C379.703,324.491 382.256,323.441 384.252,321.342C386.247,319.242 387.245,316.43 387.245,312.905C387.245,309.381 386.247,306.568 384.252,304.469C382.256,302.37 379.703,301.32 376.593,301.32C373.483,301.32 370.917,302.37 368.895,304.469C366.874,306.568 365.863,309.381 365.863,312.905C365.863,316.43 366.874,319.242 368.895,321.342C370.917,323.441 373.483,324.491 376.593,324.491Z" style="fill:rgb(1,4,46);fill-rule:nonzero;"/>
                <path d="M461.169,291.368C466.405,291.368 470.564,292.91 473.649,295.994C476.733,299.078 478.275,303.705 478.275,309.873L478.275,333.821L466.145,333.821L466.145,311.739C466.145,308.422 465.459,305.946 464.085,304.314C462.711,302.681 460.754,301.864 458.215,301.864C455.364,301.864 453.109,302.784 451.45,304.625C449.791,306.465 448.962,309.199 448.962,312.828L448.962,333.821L436.832,333.821L436.832,311.739C436.832,305.156 434.189,301.864 428.902,301.864C426.102,301.864 423.873,302.784 422.215,304.625C420.556,306.465 419.727,309.199 419.727,312.828L419.727,333.821L407.597,333.821L407.597,291.99L419.182,291.99L419.182,296.81C420.737,295.048 422.642,293.7 424.897,292.767C427.152,291.834 429.627,291.368 432.323,291.368C435.277,291.368 437.947,291.951 440.331,293.117C442.716,294.283 444.634,295.981 446.085,298.21C447.796,296.033 449.96,294.348 452.577,293.156C455.195,291.964 458.059,291.368 461.169,291.368Z" style="fill:rgb(1,4,46);fill-rule:nonzero;"/>
                <path d="M509.512,334.443C505.106,334.443 501.154,333.523 497.655,331.683C494.156,329.843 491.422,327.29 489.452,324.024C487.482,320.758 486.497,317.052 486.497,312.905C486.497,308.758 487.482,305.052 489.452,301.787C491.422,298.521 494.156,295.968 497.655,294.128C501.154,292.288 505.106,291.368 509.512,291.368C513.918,291.368 517.858,292.288 521.331,294.128C524.804,295.968 527.525,298.521 529.495,301.787C531.465,305.052 532.45,308.758 532.45,312.905C532.45,317.052 531.465,320.758 529.495,324.024C527.525,327.29 524.804,329.843 521.331,331.683C517.858,333.523 513.918,334.443 509.512,334.443ZM509.512,324.491C512.622,324.491 515.175,323.441 517.171,321.342C519.167,319.242 520.165,316.43 520.165,312.905C520.165,309.381 519.167,306.568 517.171,304.469C515.175,302.37 512.622,301.32 509.512,301.32C506.402,301.32 503.836,302.37 501.815,304.469C499.793,306.568 498.782,309.381 498.782,312.905C498.782,316.43 499.793,319.242 501.815,321.342C503.836,323.441 506.402,324.491 509.512,324.491Z" style="fill:rgb(1,4,46);fill-rule:nonzero;"/>
                <path d="M593.527,292.207C596.872,292.207 599.809,292.853 602.339,294.145C604.868,295.437 606.845,297.403 608.268,300.045C609.692,302.687 610.403,306.04 610.403,310.106L610.403,333.821L602.938,333.821L602.938,310.96C602.938,306.947 602.013,303.929 600.164,301.906C598.315,299.883 595.691,298.872 592.292,298.872C589.834,298.872 587.669,299.399 585.797,300.452C583.926,301.505 582.483,303.041 581.468,305.06C580.452,307.079 579.945,309.58 579.945,312.563L579.945,333.821L572.479,333.821L572.479,310.96C572.479,306.947 571.555,303.929 569.706,301.906C567.856,299.883 565.232,298.872 561.833,298.872C559.375,298.872 557.21,299.399 555.339,300.452C553.467,301.505 552.024,303.041 551.009,305.06C549.994,307.079 549.486,309.58 549.486,312.563L549.486,333.821L542.022,333.821L542.022,292.637L549.158,292.637L549.158,303.596L547.952,300.801C549.267,298.073 551.273,295.958 553.971,294.458C556.669,292.957 559.811,292.207 563.397,292.207C567.325,292.207 570.713,293.18 573.562,295.127C576.41,297.073 578.281,300.01 579.174,303.938L576.117,302.744C577.365,299.588 579.54,297.043 582.644,295.109C585.748,293.174 589.375,292.207 593.527,292.207Z" style="fill:rgb(25,141,216);fill-rule:nonzero;"/>
                <path d="M649.717,333.821L649.717,325.111L649.387,323.46L649.387,308.591C649.387,305.443 648.463,303.003 646.614,301.272C644.766,299.541 642.009,298.675 638.344,298.675C635.862,298.675 633.465,299.073 631.152,299.869C628.84,300.665 626.868,301.739 625.236,303.091L622.112,297.538C624.248,295.811 626.811,294.491 629.799,293.578C632.787,292.664 635.916,292.207 639.185,292.207C644.813,292.207 649.165,293.585 652.24,296.342C655.315,299.099 656.853,303.309 656.853,308.973L656.853,333.821L649.717,333.821ZM636.237,334.251C633.143,334.251 630.446,333.741 628.145,332.72C625.845,331.7 624.072,330.269 622.826,328.427C621.58,326.585 620.958,324.484 620.958,322.124C620.958,319.899 621.488,317.883 622.548,316.075C623.608,314.267 625.35,312.814 627.774,311.716C630.197,310.618 633.439,310.069 637.497,310.069L650.572,310.069L650.572,315.486L637.813,315.486C634.127,315.486 631.629,316.102 630.32,317.335C629.011,318.568 628.356,320.072 628.356,321.848C628.356,323.892 629.164,325.512 630.781,326.71C632.397,327.907 634.632,328.506 637.485,328.506C640.278,328.506 642.724,327.885 644.822,326.644C646.92,325.403 648.442,323.587 649.387,321.197L650.822,326.345C649.821,328.814 648.08,330.749 645.599,332.15C643.118,333.551 639.998,334.251 636.237,334.251Z" style="fill:rgb(25,141,216);fill-rule:nonzero;"/>
                <path d="M670.639,333.821L670.639,292.637L677.775,292.637L677.775,303.822L677.028,301.027C678.204,298.159 680.131,295.972 682.808,294.466C685.486,292.96 688.807,292.207 692.77,292.207L692.77,299.475C692.456,299.431 692.162,299.398 691.887,299.376C691.612,299.354 691.335,299.343 691.056,299.343C687.067,299.343 683.911,300.535 681.588,302.919C679.265,305.304 678.103,308.771 678.103,313.322L678.103,333.821L670.639,333.821Z" style="fill:rgb(25,141,216);fill-rule:nonzero;"/>
                <path d="M707.956,323.883L708.153,314.334L731.825,292.637L740.909,292.637L722.692,310.494L718.624,313.921L707.956,323.883ZM701.956,333.821L701.956,276.128L709.42,276.128L709.42,333.821L701.956,333.821ZM733.452,333.821L717.262,313.796L722.052,307.806L742.566,333.821L733.452,333.821Z" style="fill:rgb(25,141,216);fill-rule:nonzero;"/>
            </g>
        </g>
    </g>
    <defs>
        <linearGradient id="_Linear1" x1="0" y1="0" x2="1" y2="0" gradientUnits="userSpaceOnUse" gradientTransform="matrix(1,-0,-0,-1,0,0.035125)"><stop offset="0" style="stop-color:rgb(29,70,141);stop-opacity:1"/><stop offset="0.5" style="stop-color:rgb(8,126,227);stop-opacity:1"/><stop offset="1" style="stop-color:rgb(44,222,208);stop-opacity:1"/></linearGradient>
        <linearGradient id="_Linear2" x1="0" y1="0" x2="1" y2="0" gradientUnits="userSpaceOnUse" gradientTransform="matrix(1,0,0,-1,0,0.023005)"><stop offset="0" style="stop-color:rgb(29,70,141);stop-opacity:1"/><stop offset="0.5" style="stop-color:rgb(8,126,227);stop-opacity:1"/><stop offset="1" style="stop-color:rgb(44,222,208);stop-opacity:1"/></linearGradient>
        <linearGradient id="_Linear3" x1="0" y1="0" x2="1" y2="0" gradientUnits="userSpaceOnUse" gradientTransform="matrix(1,0,0,-1,0,0.253327)"><stop offset="0" style="stop-color:rgb(29,70,141);stop-opacity:1"/><stop offset="0.5" style="stop-color:rgb(8,126,227);stop-opacity:1"/><stop offset="1" style="stop-color:rgb(44,222,208);stop-opacity:1"/></linearGradient>
    </defs>
</svg>
