<?xml version="1.0" encoding="UTF-8" standalone="no"?>
<!DOCTYPE svg PUBLIC "-//W3C//DTD SVG 1.1//EN" "http://www.w3.org/Graphics/SVG/1.1/DTD/svg11.dtd">
<svg width="100%" height="100%" viewBox="0 0 292 118" version="1.1" xmlns="http://www.w3.org/2000/svg" xmlns:xlink="http://www.w3.org/1999/xlink" xml:space="preserve" xmlns:serif="http://www.serif.com/" style="fill-rule:evenodd;clip-rule:evenodd;stroke-miterlimit:2.613;">
    <g transform="matrix(1,0,0,1,-129.433575,0.801013)">
        <g transform="matrix(1,0,0,1,-69.409445,-405.55544)">
            <g transform="matrix(0.119321,0,0,0.119321,186.976232,408.163507)">
                <g transform="matrix(12.969765,0,0,12.969765,69.409445,-786.52897)">
                    <path d="M47.898,107.65L70.082,85.103L88.983,103.91L98.682,94.297L98.889,102.371L67.361,133.797L63.313,129.777L68.477,124.918L53.756,109.852L48.318,115.096L47.898,107.65Z" style="fill:rgb(204,34,41);stroke:rgb(204,34,41);stroke-width:0.37px;"/>
                </g>
                <g transform="matrix(12.969765,0,0,12.969765,69.409445,-786.52897)">
                    <path d="M144.057,78.707L175.445,78.707L175.445,85.768L170.492,85.768L170.492,110.936L189.852,100.344L189.922,118.836L143.881,118.836L143.881,111.529L149.045,111.529L149.078,85.768L144.092,85.768L144.057,78.707Z" style="fill:rgb(30,113,184);stroke:rgb(30,113,184);stroke-width:0.37px;"/>
                </g>
                <g transform="matrix(12.969765,0,0,12.969765,69.409445,-786.52897)">
                    <path d="M67.361,83.461C74.057,83.461 79.566,77.938 79.566,71.19C79.566,64.445 74.057,58.958 67.361,58.958C60.595,58.958 55.117,64.445 55.117,71.19C55.117,77.938 60.595,83.461 67.361,83.461Z" style="fill:rgb(204,34,41);stroke:rgb(204,34,41);stroke-width:0.37px;"/>
                </g>
                <g transform="matrix(12.969765,0,0,12.969765,69.409445,-786.52897)">
                    <path d="M3.01,79.163L34.367,79.163L34.367,86.222L29.446,86.222L29.446,111.389L48.806,100.799L48.839,119.289L2.834,119.289L2.834,112.018L7.962,112.018L7.999,86.222L2.977,86.222L3.01,79.163Z" style="fill:rgb(30,113,184);stroke:rgb(30,113,184);stroke-width:0.37px;"/>
                </g>
                <g transform="matrix(12.969765,0,0,12.969765,69.409445,-786.52897)">
                    <path d="M125.293,118.766L92.612,118.766L92.612,111.67L98.156,111.67L98.051,86.013L92.507,86.013L92.507,79.056L125.465,79.056C135.022,79.022 142.625,85.698 142.731,98.839C142.662,112.406 134.221,118.766 125.293,118.766ZM118.768,106.355C122.573,106.322 125.747,104.154 125.78,98.318C125.78,92.654 122.503,90.173 118.841,90.173L118.768,106.355Z" style="fill:rgb(30,113,184);"/>
                </g>
            </g>
        </g>
    </g>
</svg>
