<?xml version="1.0" encoding="UTF-8" standalone="no"?>
<!DOCTYPE svg PUBLIC "-//W3C//DTD SVG 1.1//EN" "http://www.w3.org/Graphics/SVG/1.1/DTD/svg11.dtd">
<svg width="100%" height="100%" viewBox="0 0 550 116" version="1.1" xmlns="http://www.w3.org/2000/svg" xmlns:xlink="http://www.w3.org/1999/xlink" xml:space="preserve" xmlns:serif="http://www.serif.com/" style="fill-rule:evenodd;clip-rule:evenodd;stroke-linejoin:round;stroke-miterlimit:2;">
    <g id="Layer-1" serif:id="Layer 1" transform="matrix(1,0,0,1,-69.409445,-405.55544)">
        <g transform="matrix(0.517454,0,0,0.517454,85.682309,405.555482)">
            <path id="path4285" d="M200.392,2.343L198.049,-0L2.343,-0L2.343,5.076L198.049,5.076L195.699,2.343L200.392,2.343L200.392,-0L198.049,-0" style="fill:rgb(196,8,9);fill-rule:nonzero;"/>
            <path id="path4287" d="M198.049,223.823L200.392,221.48L200.392,2.343L195.699,2.343L195.699,221.48L198.049,218.747L198.049,223.823L200.392,223.823L200.392,221.48" style="fill:rgb(196,8,9);fill-rule:nonzero;"/>
            <path id="path4289" d="M0,221.48L2.343,223.823L198.049,223.823L198.049,218.747L2.343,218.747L5.076,221.48L0,221.48L0,223.823L2.343,223.823" style="fill:rgb(196,8,9);fill-rule:nonzero;"/>
            <path id="path4291" d="M2.343,-0L0,2.343L0,221.48L5.076,221.48L5.076,2.343L2.343,5.076L2.343,-0L0,-0L0,2.343" style="fill:rgb(196,8,9);fill-rule:nonzero;"/>
            <path id="path4293" d="M15.233,208.589L88.669,208.589L88.669,116.403L15.233,116.403" style="fill:rgb(196,8,9);fill-rule:nonzero;"/>
            <path id="path4295" d="M15.233,107.031L88.669,107.031L88.669,14.844L15.233,14.844" style="fill:rgb(196,8,9);fill-rule:nonzero;"/>
            <path id="path4297" d="M98.437,14.844L185.937,14.844L98.437,107.031L98.437,14.844" style="fill:rgb(196,8,9);"/>
            <path id="path4299" d="M98.437,116.403L185.937,208.589L98.437,208.589L98.437,116.403" style="fill:rgb(196,8,9);"/>
            <path id="path4301" d="M250,101.948L249.611,101.948L249.611,44.526L213.672,44.526L213.672,183.198L249.611,183.198L249.611,123.043L250,123.043L296.875,183.198L343.361,183.198L283.2,110.542L338.669,44.526L293.747,44.526L250,101.948ZM384.376,117.578L391.405,117.578L392.184,117.967L393.359,118.357L394.534,118.357L395.312,118.746L396.481,119.135L397.266,119.532L398.434,119.921L399.22,120.7L399.999,121.089L400.784,121.875L401.563,122.264L402.342,123.043L402.731,123.828L403.517,124.218L404.295,124.997L405.074,126.561L405.86,127.729L407.028,130.072L407.028,131.247L407.424,132.026L407.813,133.201L407.813,133.98L408.203,135.154L408.203,141.405L407.813,142.184L407.813,143.359L407.424,144.137L407.028,145.312L407.028,146.091L406.639,146.87L406.249,148.045L405.86,148.824L405.074,149.609L404.295,151.167L403.517,151.952L402.731,152.342L402.342,153.12L401.563,153.906L400.784,154.295L399.999,155.074L399.22,155.464L398.434,155.86L397.266,156.249L396.481,156.638L395.312,157.028L394.534,157.417L393.359,157.807L392.184,157.807L391.405,158.203L384.376,158.203L383.201,157.807L382.033,157.807L380.858,157.417L380.079,157.028L378.904,156.638L378.125,156.249L376.95,155.86L375.393,155.074L374.607,154.295L373.828,153.906L373.05,153.12L372.654,152.342L371.875,151.952L371.096,151.167L370.31,149.609L369.532,148.824L369.142,148.045L368.753,146.87L367.967,145.312L367.967,144.137L367.578,143.359L367.578,142.184L367.189,141.405L367.189,135.154L367.578,133.98L367.578,133.201L367.967,132.026L367.967,131.247L368.357,130.072L369.532,127.729L370.31,126.561L371.096,124.997L371.875,124.218L372.654,123.828L373.05,123.043L373.828,122.264L374.607,121.875L375.393,121.089L376.172,120.7L376.95,119.921L378.125,119.532L378.904,119.135L380.079,118.746L380.858,118.357L382.033,118.357L384.376,117.578ZM439.059,92.576L407.028,92.576L407.028,101.559L406.639,100.78L404.685,98.826L399.999,95.308L398.045,94.14L396.481,93.355L394.534,92.576L392.58,91.797L391.016,91.401L389.062,91.012L385.155,90.233L383.201,89.843L374.218,89.843L371.875,90.233L369.532,90.622L367.189,91.401L365.235,91.797L362.892,92.576L360.938,93.751L358.984,94.53L353.123,98.041L351.559,99.605L349.612,100.78L346.483,103.902L345.315,105.856L343.751,107.42L339.065,115.235L338.279,117.182L337.5,119.532L336.722,121.485L335.157,126.171L334.768,128.118L334.372,130.468L334.372,133.201L333.982,135.544L333.982,140.23L334.372,142.573L334.372,144.916L335.157,149.609L336.722,154.295L337.5,156.249L338.279,158.592L339.065,160.546L343.751,168.354L345.315,169.918L346.873,171.872L350.001,175.001L351.559,176.169L353.513,177.733L355.077,178.901L358.984,181.244L361.327,182.419L363.281,183.198L365.624,183.984L367.578,184.373L369.921,185.152L372.264,185.541L374.607,185.937L383.59,185.937L385.544,185.541L387.498,185.152L391.405,184.373L393.359,183.594L394.923,182.809L396.091,182.809L396.877,182.03L398.434,181.244L399.22,180.855L400.388,180.076L401.563,178.901L402.342,178.512L404.685,176.169L405.074,175.39L405.86,175.001L406.249,173.826L406.639,173.047L407.028,173.047L407.028,183.198L439.059,183.198L439.059,92.576ZM454.299,92.576L454.299,149.999L454.689,152.342L454.689,155.074L455.078,157.417L455.857,159.76L456.246,161.714L457.032,164.057L458.2,166.011L458.986,167.575L460.154,169.529L463.672,174.215L471.487,180.076L479.295,183.198L481.248,183.594L483.592,184.373L485.545,184.762L487.888,185.152L490.231,185.541L492.575,185.541L494.924,185.937L509.769,185.937L512.112,185.541L514.455,185.541L516.798,185.152L521.484,184.373L523.438,183.594L525.391,183.198L527.735,182.419L529.688,181.64L531.253,180.855L533.206,180.076L534.764,178.901L536.718,177.733L538.282,176.558L539.45,175.39L541.014,174.215L542.579,172.651L544.922,169.529L545.701,167.575L546.875,166.011L547.654,164.057L548.44,161.714L548.829,159.76L549.608,157.417L549.997,155.074L550.393,152.342L550.393,92.576L518.362,92.576L518.362,145.312L517.966,147.266L517.577,148.824L517.577,150.777L516.012,153.906L515.623,154.295L514.844,155.86L514.455,156.249L514.065,157.028L512.501,157.807L512.112,158.592L511.326,158.982L510.547,159.371L509.769,159.371L508.983,159.76L507.815,160.15L507.029,160.15L505.861,160.546L498.825,160.546L498.046,160.15L496.878,160.15L496.093,159.76L495.314,159.371L494.139,159.371L493.75,158.982L492.971,158.592L492.185,157.807L491.406,157.417L489.842,155.86L489.063,154.295L488.674,153.906L487.499,151.563L487.499,150.777L487.11,149.999L487.11,148.824L486.72,147.266L486.331,145.312L486.331,92.576L454.299,92.576ZM600.391,119.135L622.654,119.135L622.654,92.576L600.391,92.576L600.391,74.603L600.78,73.046L600.78,71.481L601.17,69.917L601.955,68.749L601.955,68.353L602.344,67.574L602.734,67.184L602.734,66.406L603.909,65.231L604.298,64.841L604.688,64.452L605.466,64.452L606.252,63.666L607.031,63.666L607.42,63.277L608.206,63.277L608.595,62.888L614.456,62.888L616.014,63.277L617.189,63.666L618.753,64.056L619.921,64.841L621.485,65.231L622.654,66.01L622.654,38.275L619.532,36.717L617.967,36.321L616.014,35.543L614.456,35.543L612.892,35.153L604.688,35.153L602.344,35.543L600.001,35.932L598.048,36.321L595.705,37.107L591.797,38.671L589.843,39.839L587.89,40.625L585.936,42.182L583.982,43.357L582.425,44.526L580.471,46.09L578.128,48.433L577.342,49.608L575.778,51.165L575.389,52.34L574.61,53.119L573.831,54.294L573.046,55.858L572.267,57.027L571.481,58.591L571.092,59.766L570.703,60.545L570.313,62.498L569.534,64.452L569.138,66.406L569.138,68.353L568.359,72.26L568.359,92.576L557.033,92.576L557.033,119.135L568.359,119.135L568.359,183.198L600.391,183.198L600.391,119.135ZM627.736,183.198L659.767,183.198L659.767,36.717L627.736,36.717L627.736,183.198ZM718.747,117.578L725.784,117.578L726.952,117.967L728.127,118.357L728.905,118.357L730.08,118.746L730.859,119.135L732.034,119.532L732.813,119.921L733.592,120.7L734.766,121.089L735.156,121.875L735.935,122.264L737.499,123.828L738.284,124.218L738.674,124.997L739.453,125.782L739.842,126.561L740.231,127.729L741.406,130.072L741.796,131.247L742.185,132.026L742.581,133.201L742.581,135.154L742.971,135.933L742.971,140.23L742.581,141.405L742.581,143.359L742.185,144.137L741.796,145.312L741.017,146.87L740.628,148.045L739.453,150.388L738.674,151.167L738.284,151.952L737.499,152.342L735.935,153.906L735.156,154.295L734.766,155.074L733.592,155.464L732.034,156.249L730.859,156.638L730.08,157.028L728.905,157.417L728.127,157.807L726.952,157.807L725.784,158.203L718.747,158.203L717.579,157.807L716.794,157.807L715.626,157.417L714.451,157.028L712.893,156.249L711.718,155.86L710.939,155.464L710.154,155.074L709.375,154.295L708.596,153.906L706.643,151.952L705.857,151.167L705.468,150.388L704.689,149.609L703.903,148.045L703.514,146.87L702.735,145.312L702.346,144.137L702.346,143.359L701.95,142.184L701.95,140.23L701.56,139.062L701.56,137.108L701.95,135.933L701.95,133.98L702.346,133.201L702.346,132.026L702.735,131.247L703.125,130.072L704.299,127.729L704.689,126.561L705.468,125.782L705.857,124.997L706.643,124.218L708.596,122.264L709.375,121.875L710.154,121.089L710.939,120.7L711.718,119.921L712.893,119.532L714.451,118.746L715.626,118.357L716.794,118.357L717.579,117.967L718.747,117.578ZM773.827,92.576L741.796,92.576L741.796,101.559L741.017,100.78L740.628,99.995L739.842,99.216L739.063,98.826L737.499,97.651L736.331,96.483L734.377,95.308L732.813,94.14L731.249,93.355L727.341,91.797L725.387,91.401L723.83,91.012L719.922,90.233L717.579,89.843L708.986,89.843L706.643,90.233L704.299,90.622L701.95,91.401L699.607,91.797L697.66,92.576L695.706,93.751L693.356,94.53L689.455,96.873L687.891,98.041L685.937,99.605L684.373,100.78L681.251,103.902L679.687,105.856L678.519,107.42L676.954,109.374L674.611,113.281L673.826,115.235L672.658,117.182L671.872,119.532L671.093,121.485L670.704,123.828L669.925,126.171L669.529,128.118L669.14,130.468L668.75,133.201L668.75,142.573L669.925,149.609L670.704,151.952L671.093,154.295L671.872,156.249L672.658,158.592L678.519,168.354L680.076,169.918L681.251,171.872L684.373,175.001L686.327,176.169L687.891,177.733L695.706,182.419L698.049,183.198L700.003,183.984L702.346,184.373L704.689,185.152L707.032,185.541L709.375,185.937L718.358,185.937L720.312,185.541L722.265,185.152L726.173,184.373L727.737,183.594L729.691,182.809L730.47,182.809L731.638,182.03L733.988,180.855L734.766,180.076L735.545,179.687L736.331,178.901L737.11,178.512L737.888,177.733L738.284,176.948L740.231,175.001L741.017,173.826L741.406,173.047L741.796,173.047L741.796,183.198L773.827,183.198L773.827,92.576ZM821.488,92.576L789.45,92.576L789.45,183.198L821.488,183.198L821.488,133.98L821.877,132.026L821.877,130.072L822.267,128.118L822.656,127.34L822.656,126.561L823.046,125.386L825.389,120.7L826.174,120.31L826.564,119.532L827.732,118.357L828.517,117.967L829.296,117.578L830.075,116.792L830.86,116.403L832.029,116.403L832.814,116.014L833.982,115.624L834.768,115.624L835.936,115.235L841.018,115.235L843.361,116.014L844.53,116.403L845.705,116.792L846.483,117.182L847.269,117.578L848.826,119.135L849.216,119.921L850.001,120.7L851.566,123.828L851.566,124.997L851.955,125.782L851.955,126.95L852.344,127.729L852.734,129.683L852.734,183.198L884.765,183.198L884.765,123.043L884.376,121.089L884.376,119.135L883.986,117.578L883.201,113.67L882.812,112.106L882.422,110.152L881.643,108.588L881.247,107.031L880.468,105.466L879.69,104.291L878.904,102.734L877.736,101.559L876.95,99.995L874.607,97.651L873.439,96.873L872.264,95.698L870.707,94.919L869.532,94.14L866.41,92.576L864.456,91.797L862.892,91.401L861.327,91.012L857.42,90.233L855.077,89.843L846.094,89.843L844.14,90.233L842.187,90.622L839.843,91.012L837.89,91.401L836.325,92.186L835.157,92.576L834.372,92.965L833.593,93.355L832.814,93.751L831.639,94.14L830.86,94.919L830.075,95.308L828.517,96.873L827.732,97.262L825.389,99.605L824.61,100.78L823.831,101.559L823.435,102.338L822.656,103.513L821.877,104.291L821.488,104.291L821.488,92.576ZM967.969,183.198L1000,183.198L1000,36.717L967.969,36.717L967.969,101.559L967.579,100.78L966.015,99.216L965.236,98.826L964.061,97.651L962.504,96.483L960.55,95.308L958.986,94.14L957.421,93.355L955.468,92.576L953.514,91.797L951.56,91.401L949.607,91.012L945.706,90.233L944.142,89.843L935.159,89.843L932.816,90.233L930.472,90.622L928.123,91.401L925.779,91.797L923.826,92.576L921.483,93.751L919.529,94.53L915.628,96.873L914.064,98.041L912.11,99.605L910.546,100.78L907.424,103.902L905.86,105.856L904.685,107.42L903.127,109.374L900.784,113.281L899.999,115.235L898.831,117.182L898.045,119.532L897.266,121.485L896.877,123.828L896.091,126.171L895.702,128.118L895.312,130.468L894.923,133.201L894.923,142.573L896.091,149.609L896.877,151.952L897.266,154.295L898.045,156.249L898.831,158.592L901.174,162.5L901.952,164.447L903.517,166.4L904.685,168.354L906.249,169.918L907.424,171.872L910.546,175.001L912.5,176.169L914.064,177.733L921.872,182.419L924.222,183.198L926.169,183.984L928.519,184.373L930.862,185.152L933.205,185.541L935.548,185.937L944.531,185.937L946.485,185.541L948.438,185.152L952.346,184.373L953.903,183.594L955.857,182.809L956.643,182.809L957.811,182.03L960.154,180.855L960.939,180.076L961.718,179.687L962.504,178.901L963.283,178.512L964.061,177.733L964.451,176.948L965.236,176.169L966.404,175.001L967.19,173.826L967.579,173.047L967.969,173.047L967.969,183.198ZM948.438,117.578L951.956,117.578L954.299,118.357L955.078,118.357L956.253,118.746L957.032,119.135L958.2,119.532L958.986,119.921L959.764,120.7L960.55,121.089L961.329,121.875L962.108,122.264L963.672,123.828L964.451,124.218L964.847,124.997L965.626,125.782L966.015,126.561L966.404,127.729L967.579,130.072L967.969,131.247L968.358,132.026L968.358,133.201L968.747,133.98L968.747,135.154L969.144,135.933L969.144,140.23L968.747,141.405L968.747,142.184L968.358,143.359L968.358,144.137L967.969,145.312L967.19,146.87L966.794,148.045L965.626,150.388L964.847,151.167L964.451,151.952L963.672,152.342L962.108,153.906L961.329,154.295L960.55,155.074L958.2,156.249L957.032,156.638L956.253,157.028L955.078,157.417L954.299,157.807L953.125,157.807L951.956,158.203L944.92,158.203L943.752,157.807L942.967,157.807L941.798,157.417L940.624,157.028L939.845,156.638L938.67,156.249L936.327,155.074L935.548,154.295L934.763,153.906L932.03,151.167L931.641,150.388L930.862,149.609L930.076,148.045L929.687,146.87L928.908,145.312L928.519,144.137L928.519,143.359L928.123,142.184L928.123,140.23L927.733,139.062L927.733,137.108L928.123,135.933L928.123,133.98L928.519,133.201L928.519,132.026L928.908,131.247L929.298,130.072L930.472,127.729L930.862,126.561L931.641,125.782L932.03,124.997L934.763,122.264L935.548,121.875L936.327,121.089L937.112,120.7L937.891,119.921L938.67,119.532L939.845,119.135L940.624,118.746L941.798,118.357L942.967,118.357L943.752,117.967L944.92,117.578L948.438,117.578" style="fill:rgb(196,8,9);"/>
            <path id="path4303" d="M213.672,223.823L999.221,223.823L999.221,203.514L213.672,203.514" style="fill:rgb(196,8,9);fill-rule:nonzero;"/>
        </g>
    </g>
</svg>
